<mxfile host="app.diagrams.net" modified="2024-04-15T17:04:22.925Z" agent="Mozilla/5.0 (Windows NT 10.0; Win64; x64) AppleWebKit/537.36 (KHTML, like Gecko) Chrome/123.0.0.0 Safari/537.36" etag="ytFVm7pEwsCYez2ZkRAx" version="24.2.1" type="device">
  <diagram id="prtHgNgQTEPvFCAcTncT" name="Page-1">
    <mxGraphModel dx="2327" dy="796" grid="1" gridSize="10" guides="1" tooltips="1" connect="1" arrows="1" fold="1" page="1" pageScale="1" pageWidth="827" pageHeight="1169" math="0" shadow="0">
      <root>
        <mxCell id="0" />
        <mxCell id="1" parent="0" />
        <mxCell id="ssXudTxLD_YD18lDGc3d-23" style="edgeStyle=orthogonalEdgeStyle;rounded=0;orthogonalLoop=1;jettySize=auto;html=1;exitX=0.5;exitY=1;exitDx=0;exitDy=0;entryX=0.5;entryY=0;entryDx=0;entryDy=0;endArrow=none;endFill=0;" edge="1" parent="1" source="ssXudTxLD_YD18lDGc3d-1" target="ssXudTxLD_YD18lDGc3d-5">
          <mxGeometry relative="1" as="geometry" />
        </mxCell>
        <mxCell id="ssXudTxLD_YD18lDGc3d-24" style="edgeStyle=orthogonalEdgeStyle;rounded=0;orthogonalLoop=1;jettySize=auto;html=1;exitX=0.5;exitY=1;exitDx=0;exitDy=0;entryX=0.5;entryY=0;entryDx=0;entryDy=0;endArrow=none;endFill=0;" edge="1" parent="1" source="ssXudTxLD_YD18lDGc3d-1" target="ssXudTxLD_YD18lDGc3d-4">
          <mxGeometry relative="1" as="geometry" />
        </mxCell>
        <mxCell id="ssXudTxLD_YD18lDGc3d-25" style="edgeStyle=orthogonalEdgeStyle;rounded=0;orthogonalLoop=1;jettySize=auto;html=1;exitX=0.5;exitY=1;exitDx=0;exitDy=0;entryX=0.5;entryY=0;entryDx=0;entryDy=0;endArrow=none;endFill=0;" edge="1" parent="1" source="ssXudTxLD_YD18lDGc3d-1" target="ssXudTxLD_YD18lDGc3d-3">
          <mxGeometry relative="1" as="geometry" />
        </mxCell>
        <mxCell id="ssXudTxLD_YD18lDGc3d-26" style="edgeStyle=orthogonalEdgeStyle;rounded=0;orthogonalLoop=1;jettySize=auto;html=1;exitX=0.5;exitY=1;exitDx=0;exitDy=0;entryX=0.5;entryY=0;entryDx=0;entryDy=0;endArrow=none;endFill=0;" edge="1" parent="1" source="ssXudTxLD_YD18lDGc3d-1" target="ssXudTxLD_YD18lDGc3d-2">
          <mxGeometry relative="1" as="geometry" />
        </mxCell>
        <mxCell id="ssXudTxLD_YD18lDGc3d-27" style="edgeStyle=orthogonalEdgeStyle;rounded=0;orthogonalLoop=1;jettySize=auto;html=1;exitX=0.5;exitY=1;exitDx=0;exitDy=0;endArrow=none;endFill=0;" edge="1" parent="1" source="ssXudTxLD_YD18lDGc3d-1" target="ssXudTxLD_YD18lDGc3d-6">
          <mxGeometry relative="1" as="geometry" />
        </mxCell>
        <mxCell id="ssXudTxLD_YD18lDGc3d-28" style="edgeStyle=orthogonalEdgeStyle;rounded=0;orthogonalLoop=1;jettySize=auto;html=1;exitX=0.5;exitY=1;exitDx=0;exitDy=0;entryX=0.5;entryY=0;entryDx=0;entryDy=0;endArrow=none;endFill=0;" edge="1" parent="1" source="ssXudTxLD_YD18lDGc3d-1" target="ssXudTxLD_YD18lDGc3d-16">
          <mxGeometry relative="1" as="geometry" />
        </mxCell>
        <mxCell id="ssXudTxLD_YD18lDGc3d-1" value="Home" style="rounded=1;whiteSpace=wrap;html=1;" vertex="1" parent="1">
          <mxGeometry x="560" y="40" width="120" height="60" as="geometry" />
        </mxCell>
        <mxCell id="ssXudTxLD_YD18lDGc3d-30" style="edgeStyle=orthogonalEdgeStyle;rounded=0;orthogonalLoop=1;jettySize=auto;html=1;exitX=0.5;exitY=1;exitDx=0;exitDy=0;entryX=0.5;entryY=0;entryDx=0;entryDy=0;endArrow=none;endFill=0;" edge="1" parent="1" source="ssXudTxLD_YD18lDGc3d-2" target="ssXudTxLD_YD18lDGc3d-7">
          <mxGeometry relative="1" as="geometry" />
        </mxCell>
        <mxCell id="ssXudTxLD_YD18lDGc3d-2" value="Log In" style="rounded=1;whiteSpace=wrap;html=1;" vertex="1" parent="1">
          <mxGeometry x="-40" y="160" width="120" height="60" as="geometry" />
        </mxCell>
        <mxCell id="ssXudTxLD_YD18lDGc3d-3" value="Registration" style="rounded=1;whiteSpace=wrap;html=1;" vertex="1" parent="1">
          <mxGeometry x="160" y="160" width="120" height="60" as="geometry" />
        </mxCell>
        <mxCell id="ssXudTxLD_YD18lDGc3d-4" value="About" style="rounded=1;whiteSpace=wrap;html=1;" vertex="1" parent="1">
          <mxGeometry x="360" y="160" width="120" height="60" as="geometry" />
        </mxCell>
        <mxCell id="ssXudTxLD_YD18lDGc3d-32" style="edgeStyle=orthogonalEdgeStyle;rounded=0;orthogonalLoop=1;jettySize=auto;html=1;exitX=0.5;exitY=1;exitDx=0;exitDy=0;endArrow=none;endFill=0;" edge="1" parent="1" source="ssXudTxLD_YD18lDGc3d-5" target="ssXudTxLD_YD18lDGc3d-10">
          <mxGeometry relative="1" as="geometry" />
        </mxCell>
        <mxCell id="ssXudTxLD_YD18lDGc3d-5" value="Menu" style="rounded=1;whiteSpace=wrap;html=1;" vertex="1" parent="1">
          <mxGeometry x="560" y="160" width="120" height="60" as="geometry" />
        </mxCell>
        <mxCell id="ssXudTxLD_YD18lDGc3d-6" value="Contact Us" style="rounded=1;whiteSpace=wrap;html=1;" vertex="1" parent="1">
          <mxGeometry x="760" y="160" width="120" height="60" as="geometry" />
        </mxCell>
        <mxCell id="ssXudTxLD_YD18lDGc3d-31" style="edgeStyle=orthogonalEdgeStyle;rounded=0;orthogonalLoop=1;jettySize=auto;html=1;exitX=0.5;exitY=1;exitDx=0;exitDy=0;entryX=0.5;entryY=0;entryDx=0;entryDy=0;endArrow=none;endFill=0;" edge="1" parent="1" source="ssXudTxLD_YD18lDGc3d-7" target="ssXudTxLD_YD18lDGc3d-12">
          <mxGeometry relative="1" as="geometry" />
        </mxCell>
        <mxCell id="ssXudTxLD_YD18lDGc3d-7" value="Customers" style="rounded=1;whiteSpace=wrap;html=1;" vertex="1" parent="1">
          <mxGeometry x="-40" y="270" width="120" height="60" as="geometry" />
        </mxCell>
        <mxCell id="ssXudTxLD_YD18lDGc3d-33" style="edgeStyle=orthogonalEdgeStyle;rounded=0;orthogonalLoop=1;jettySize=auto;html=1;exitX=0.5;exitY=1;exitDx=0;exitDy=0;entryX=0.5;entryY=0;entryDx=0;entryDy=0;endArrow=none;endFill=0;" edge="1" parent="1" source="ssXudTxLD_YD18lDGc3d-10" target="ssXudTxLD_YD18lDGc3d-13">
          <mxGeometry relative="1" as="geometry" />
        </mxCell>
        <mxCell id="ssXudTxLD_YD18lDGc3d-10" value="Burger" style="rounded=1;whiteSpace=wrap;html=1;" vertex="1" parent="1">
          <mxGeometry x="560" y="270" width="120" height="60" as="geometry" />
        </mxCell>
        <mxCell id="ssXudTxLD_YD18lDGc3d-12" value="Admin" style="rounded=1;whiteSpace=wrap;html=1;" vertex="1" parent="1">
          <mxGeometry x="-40" y="380" width="120" height="60" as="geometry" />
        </mxCell>
        <mxCell id="ssXudTxLD_YD18lDGc3d-34" style="edgeStyle=orthogonalEdgeStyle;rounded=0;orthogonalLoop=1;jettySize=auto;html=1;exitX=0.5;exitY=1;exitDx=0;exitDy=0;entryX=0.5;entryY=0;entryDx=0;entryDy=0;endArrow=none;endFill=0;" edge="1" parent="1" source="ssXudTxLD_YD18lDGc3d-13" target="ssXudTxLD_YD18lDGc3d-14">
          <mxGeometry relative="1" as="geometry" />
        </mxCell>
        <mxCell id="ssXudTxLD_YD18lDGc3d-13" value="Pasta" style="rounded=1;whiteSpace=wrap;html=1;" vertex="1" parent="1">
          <mxGeometry x="560" y="380" width="120" height="60" as="geometry" />
        </mxCell>
        <mxCell id="ssXudTxLD_YD18lDGc3d-35" style="edgeStyle=orthogonalEdgeStyle;rounded=0;orthogonalLoop=1;jettySize=auto;html=1;exitX=0.5;exitY=1;exitDx=0;exitDy=0;entryX=0.5;entryY=0;entryDx=0;entryDy=0;endArrow=none;endFill=0;" edge="1" parent="1" source="ssXudTxLD_YD18lDGc3d-14" target="ssXudTxLD_YD18lDGc3d-15">
          <mxGeometry relative="1" as="geometry" />
        </mxCell>
        <mxCell id="ssXudTxLD_YD18lDGc3d-14" value="Steak" style="rounded=1;whiteSpace=wrap;html=1;" vertex="1" parent="1">
          <mxGeometry x="560" y="490" width="120" height="60" as="geometry" />
        </mxCell>
        <mxCell id="ssXudTxLD_YD18lDGc3d-15" value="Chicken Wings" style="rounded=1;whiteSpace=wrap;html=1;" vertex="1" parent="1">
          <mxGeometry x="560" y="600" width="120" height="60" as="geometry" />
        </mxCell>
        <mxCell id="ssXudTxLD_YD18lDGc3d-36" style="edgeStyle=orthogonalEdgeStyle;rounded=0;orthogonalLoop=1;jettySize=auto;html=1;exitX=0.5;exitY=1;exitDx=0;exitDy=0;entryX=0.5;entryY=0;entryDx=0;entryDy=0;endArrow=none;endFill=0;" edge="1" parent="1" source="ssXudTxLD_YD18lDGc3d-16" target="ssXudTxLD_YD18lDGc3d-21">
          <mxGeometry relative="1" as="geometry" />
        </mxCell>
        <mxCell id="ssXudTxLD_YD18lDGc3d-16" value="Order Page" style="rounded=1;whiteSpace=wrap;html=1;" vertex="1" parent="1">
          <mxGeometry x="960" y="160" width="120" height="60" as="geometry" />
        </mxCell>
        <mxCell id="ssXudTxLD_YD18lDGc3d-38" style="edgeStyle=orthogonalEdgeStyle;rounded=0;orthogonalLoop=1;jettySize=auto;html=1;exitX=0.5;exitY=1;exitDx=0;exitDy=0;entryX=0.5;entryY=0;entryDx=0;entryDy=0;endArrow=none;endFill=0;" edge="1" parent="1" source="ssXudTxLD_YD18lDGc3d-17" target="ssXudTxLD_YD18lDGc3d-18">
          <mxGeometry relative="1" as="geometry" />
        </mxCell>
        <mxCell id="ssXudTxLD_YD18lDGc3d-17" value="Admin Page" style="rounded=1;whiteSpace=wrap;html=1;" vertex="1" parent="1">
          <mxGeometry x="1160" y="160" width="120" height="60" as="geometry" />
        </mxCell>
        <mxCell id="ssXudTxLD_YD18lDGc3d-39" style="edgeStyle=orthogonalEdgeStyle;rounded=0;orthogonalLoop=1;jettySize=auto;html=1;exitX=0.5;exitY=1;exitDx=0;exitDy=0;entryX=0.5;entryY=0;entryDx=0;entryDy=0;endArrow=none;endFill=0;" edge="1" parent="1" source="ssXudTxLD_YD18lDGc3d-18" target="ssXudTxLD_YD18lDGc3d-19">
          <mxGeometry relative="1" as="geometry" />
        </mxCell>
        <mxCell id="ssXudTxLD_YD18lDGc3d-18" value="View Record" style="rounded=1;whiteSpace=wrap;html=1;" vertex="1" parent="1">
          <mxGeometry x="1160" y="270" width="120" height="60" as="geometry" />
        </mxCell>
        <mxCell id="ssXudTxLD_YD18lDGc3d-40" style="edgeStyle=orthogonalEdgeStyle;rounded=0;orthogonalLoop=1;jettySize=auto;html=1;exitX=0.5;exitY=1;exitDx=0;exitDy=0;entryX=0.5;entryY=0;entryDx=0;entryDy=0;endArrow=none;endFill=0;" edge="1" parent="1" source="ssXudTxLD_YD18lDGc3d-19" target="ssXudTxLD_YD18lDGc3d-20">
          <mxGeometry relative="1" as="geometry" />
        </mxCell>
        <mxCell id="ssXudTxLD_YD18lDGc3d-19" value="Search Record&amp;nbsp;" style="rounded=1;whiteSpace=wrap;html=1;" vertex="1" parent="1">
          <mxGeometry x="1160" y="380" width="120" height="60" as="geometry" />
        </mxCell>
        <mxCell id="ssXudTxLD_YD18lDGc3d-20" value="Delete Record" style="rounded=1;whiteSpace=wrap;html=1;" vertex="1" parent="1">
          <mxGeometry x="1160" y="490" width="120" height="60" as="geometry" />
        </mxCell>
        <mxCell id="ssXudTxLD_YD18lDGc3d-37" style="edgeStyle=orthogonalEdgeStyle;rounded=0;orthogonalLoop=1;jettySize=auto;html=1;exitX=0.5;exitY=1;exitDx=0;exitDy=0;entryX=0.5;entryY=0;entryDx=0;entryDy=0;endArrow=none;endFill=0;" edge="1" parent="1" source="ssXudTxLD_YD18lDGc3d-21" target="ssXudTxLD_YD18lDGc3d-22">
          <mxGeometry relative="1" as="geometry" />
        </mxCell>
        <mxCell id="ssXudTxLD_YD18lDGc3d-21" value="Payment" style="rounded=1;whiteSpace=wrap;html=1;" vertex="1" parent="1">
          <mxGeometry x="960" y="270" width="120" height="60" as="geometry" />
        </mxCell>
        <mxCell id="ssXudTxLD_YD18lDGc3d-22" value="Confirmation" style="rounded=1;whiteSpace=wrap;html=1;" vertex="1" parent="1">
          <mxGeometry x="960" y="380" width="120" height="60" as="geometry" />
        </mxCell>
        <mxCell id="ssXudTxLD_YD18lDGc3d-29" style="edgeStyle=orthogonalEdgeStyle;rounded=0;orthogonalLoop=1;jettySize=auto;html=1;exitX=0.5;exitY=1;exitDx=0;exitDy=0;entryX=0.5;entryY=0;entryDx=0;entryDy=0;endArrow=none;endFill=0;" edge="1" parent="1" source="ssXudTxLD_YD18lDGc3d-1" target="ssXudTxLD_YD18lDGc3d-17">
          <mxGeometry relative="1" as="geometry" />
        </mxCell>
      </root>
    </mxGraphModel>
  </diagram>
</mxfile>
